<?xml version="1.0" encoding="UTF-8"?><svg id="i" xmlns="http://www.w3.org/2000/svg" viewBox="0 0 200 200"><defs><style>.j{fill:#fff;}.k{fill:none;stroke:#000;stroke-miterlimit:10;stroke-width:5px;}</style></defs><g><circle class="j" cx="50" cy="50" r="37.5"/><path d="M50,15c19.3,0,35,15.7,35,35s-15.7,35-35,35S15,69.3,15,50,30.7,15,50,15m0-5C27.91,10,10,27.91,10,50s17.91,40,40,40,40-17.91,40-40S72.09,10,50,10h0Z"/></g><polyline class="k" points="64.14 64.14 50 50 50 20"/><g><circle class="j" cx="150" cy="150" r="37.5"/><path d="M150,115c19.3,0,35,15.7,35,35s-15.7,35-35,35-35-15.7-35-35,15.7-35,35-35m0-5c-22.09,0-40,17.91-40,40s17.91,40,40,40,40-17.91,40-40-17.91-40-40-40h0Z"/></g><polyline class="k" points="135.86 164.14 150 150 150 120"/><line class="k" x1="46.97" y1="153.03" x2="153.03" y2="46.97"/></svg>