<?xml version="1.0" encoding="UTF-8"?><svg id="c" xmlns="http://www.w3.org/2000/svg" viewBox="0 0 100 100"><path d="M71.21,20.25c4.01,0,7.78,1.56,10.61,4.39,5.85,5.85,5.85,15.36,0,21.21l-31.82,31.82-31.82-31.82c-5.85-5.85-5.85-15.36,0-21.21,2.84-2.83,6.61-4.4,10.62-4.4s7.77,1.56,10.61,4.39l7.07,7.07,3.54,3.54,3.54-3.54,7.07-7.07c2.83-2.83,6.6-4.39,10.61-4.39m0-5c-5.12,0-10.24,1.95-14.14,5.86l-7.07,7.07-7.07-7.07c-3.9-3.9-9.02-5.86-14.14-5.86s-10.24,1.95-14.15,5.86c-7.81,7.81-7.81,20.47,0,28.28l35.36,35.36,35.36-35.36c7.81-7.81,7.81-20.47,0-28.28-3.91-3.9-9.03-5.86-14.15-5.86h0Z"/></svg>